<svg width="209" height="285" fill="none" xmlns="http://www.w3.org/2000/svg">
  <g clip-path="url(#clip0)" fill="#FDCB6E">
    <path d="M162.704 35.661a6.687 6.687 0 100-13.373 6.687 6.687 0 000 13.373zM184.992 13.373a6.687 6.687 0 100-13.374 6.687 6.687 0 000 13.374zM207.28 35.661a6.687 6.687 0 100-13.373 6.687 6.687 0 000 13.373zM118.128 80.238a6.687 6.687 0 10-.001-13.373 6.687 6.687 0 00.001 13.373zM140.416 57.95a6.686 6.686 0 006.686-6.687 6.686 6.686 0 10-13.373 0 6.687 6.687 0 006.687 6.686zM162.704 80.238a6.687 6.687 0 100-13.374 6.687 6.687 0 000 13.374zM184.992 57.95a6.687 6.687 0 100-13.374 6.687 6.687 0 000 13.373zM207.28 80.238a6.687 6.687 0 100-13.374 6.687 6.687 0 000 13.374zM73.551 124.814a6.687 6.687 0 100-13.373 6.687 6.687 0 000 13.373zM95.84 102.526a6.687 6.687 0 100-13.374 6.687 6.687 0 000 13.374zM118.128 124.814a6.687 6.687 0 10-.001-13.373 6.687 6.687 0 00.001 13.373zM140.416 102.526a6.686 6.686 0 006.686-6.687 6.686 6.686 0 10-13.373 0 6.687 6.687 0 006.687 6.687zM162.704 124.814a6.687 6.687 0 100-13.374 6.687 6.687 0 000 13.374zM184.992 102.526a6.687 6.687 0 100-13.374 6.687 6.687 0 000 13.374zM207.28 124.814a6.687 6.687 0 100-13.374 6.687 6.687 0 000 13.374zM95.84 147.102a6.686 6.686 0 100-13.373 6.687 6.687 0 000 13.373zM118.128 169.391a6.687 6.687 0 10-.002-13.374 6.687 6.687 0 00.002 13.374zM140.416 147.102a6.686 6.686 0 100-13.373 6.686 6.686 0 000 13.373zM162.704 169.391a6.687 6.687 0 100-13.374 6.687 6.687 0 000 13.374zM184.992 147.102a6.686 6.686 0 10.001-13.373 6.686 6.686 0 00-.001 13.373zM207.28 169.391a6.687 6.687 0 100-13.374 6.687 6.687 0 000 13.374zM140.416 191.679a6.686 6.686 0 100-13.373 6.686 6.686 0 000 13.373zM162.704 213.967a6.687 6.687 0 100-13.374 6.687 6.687 0 000 13.374zM184.992 191.679a6.687 6.687 0 100-13.374 6.687 6.687 0 000 13.374zM207.28 213.967a6.687 6.687 0 100-13.374 6.687 6.687 0 000 13.374zM184.992 236.255a6.686 6.686 0 10.001-13.373 6.686 6.686 0 00-.001 13.373zM207.28 258.544a6.687 6.687 0 100-13.374 6.687 6.687 0 000 13.374z"/>
  </g>
  <defs>
    <clipPath id="clip0">
      <path fill="#fff" d="M0 0h209v285H0z"/>
    </clipPath>
  </defs>
</svg>
