<svg width="207" height="64" viewBox="0 0 207 64" fill="none" xmlns="http://www.w3.org/2000/svg">
<rect width="207" height="64" fill="white"/>
<path d="M80.6392 16.1911H84.647V27H87.3828V16.1911H91.3906V13.9091H80.6392V16.1911ZM96.0331 21.3239C96.0395 20.0582 96.8129 19.3168 97.9251 19.3168C99.031 19.3168 99.683 20.0263 99.6766 21.2344V27H102.4V20.7486C102.406 18.4474 101.051 17.054 99.0054 17.054C97.5161 17.054 96.5189 17.7571 96.0714 18.9141H95.9564V13.9091H93.3101V27H96.0331V21.3239ZM109.217 27.1918C111.646 27.1918 113.282 26.0092 113.666 24.1875L111.147 24.0213C110.872 24.7692 110.169 25.1591 109.262 25.1591C107.9 25.1591 107.037 24.2578 107.037 22.794V22.7876H113.723V22.0398C113.723 18.7031 111.703 17.054 109.108 17.054C106.219 17.054 104.346 19.1058 104.346 22.1357C104.346 25.2486 106.194 27.1918 109.217 27.1918ZM107.037 21.1001C107.095 19.9815 107.945 19.0866 109.153 19.0866C110.336 19.0866 111.154 19.9304 111.16 21.1001H107.037ZM115.7 30.6818H118.423V25.4276H118.506C118.884 26.2457 119.708 27.1598 121.293 27.1598C123.531 27.1598 125.276 25.3892 125.276 22.1037C125.276 18.7287 123.454 17.054 121.3 17.054C119.657 17.054 118.871 18.032 118.506 18.831H118.385V17.1818H115.7V30.6818ZM118.366 22.0909C118.366 20.3395 119.107 19.2209 120.43 19.2209C121.779 19.2209 122.495 20.3906 122.495 22.0909C122.495 23.804 121.766 24.9929 120.43 24.9929C119.12 24.9929 118.366 23.8423 118.366 22.0909ZM127.291 27H130.014V21.4453C130.014 20.2372 130.896 19.4062 132.098 19.4062C132.475 19.4062 132.993 19.4702 133.248 19.5533V17.1371C133.005 17.0795 132.667 17.0412 132.392 17.0412C131.292 17.0412 130.391 17.6804 130.033 18.8949H129.931V17.1818H127.291V27ZM138.835 27.1918C141.814 27.1918 143.668 25.1527 143.668 22.1293C143.668 19.0866 141.814 17.054 138.835 17.054C135.857 17.054 134.003 19.0866 134.003 22.1293C134.003 25.1527 135.857 27.1918 138.835 27.1918ZM138.848 25.0824C137.474 25.0824 136.771 23.8232 136.771 22.1101C136.771 20.397 137.474 19.1314 138.848 19.1314C140.197 19.1314 140.9 20.397 140.9 22.1101C140.9 23.8232 140.197 25.0824 138.848 25.0824ZM149.256 27.1598C150.841 27.1598 151.666 26.2457 152.043 25.4276H152.158V27H154.843V13.9091H152.126V18.831H152.043C151.679 18.032 150.892 17.054 149.25 17.054C147.096 17.054 145.274 18.7287 145.274 22.1037C145.274 25.3892 147.019 27.1598 149.256 27.1598ZM150.119 24.9929C148.783 24.9929 148.054 23.804 148.054 22.0909C148.054 20.3906 148.77 19.2209 150.119 19.2209C151.442 19.2209 152.184 20.3395 152.184 22.0909C152.184 23.8423 151.429 24.9929 150.119 24.9929ZM163.578 22.8196C163.584 24.1364 162.683 24.8267 161.705 24.8267C160.676 24.8267 160.011 24.1044 160.005 22.9474V17.1818H157.282V23.4332C157.288 25.728 158.63 27.1278 160.605 27.1278C162.082 27.1278 163.143 26.3672 163.584 25.2166H163.686V27H166.301V17.1818H163.578V22.8196ZM173.115 27.1918C175.729 27.1918 177.372 25.6577 177.5 23.4013H174.93C174.77 24.4496 174.08 25.0376 173.147 25.0376C171.875 25.0376 171.05 23.9702 171.05 22.0909C171.05 20.2372 171.881 19.1761 173.147 19.1761C174.144 19.1761 174.783 19.8345 174.93 20.8125H177.5C177.385 18.5433 175.665 17.054 173.102 17.054C170.123 17.054 168.283 19.1186 168.283 22.1293C168.283 25.1143 170.091 27.1918 173.115 27.1918ZM184.666 17.1818H182.818V14.8295H180.095V17.1818H178.753V19.2273H180.095V24.3409C180.082 26.2649 181.393 27.2173 183.368 27.1342C184.071 27.1087 184.57 26.968 184.845 26.8786L184.416 24.8523C184.282 24.8778 183.994 24.9418 183.739 24.9418C183.195 24.9418 182.818 24.7372 182.818 23.983V19.2273H184.666V17.1818Z" fill="#2D3436"/>
<path d="M86.8011 41.3636H87.9943C87.9396 39.8274 86.5227 38.679 84.554 38.679C82.6051 38.679 81.0739 39.8125 81.0739 41.5227C81.0739 42.8949 82.0682 43.7102 83.6591 44.1676L84.9119 44.5256C85.9858 44.8239 86.9403 45.2017 86.9403 46.2159C86.9403 47.3295 85.8665 48.0653 84.4545 48.0653C83.2415 48.0653 82.1676 47.5284 82.0682 46.375H80.7955C80.9148 48.0455 82.267 49.179 84.4545 49.179C86.8011 49.179 88.1335 47.8864 88.1335 46.2358C88.1335 44.3267 86.3239 43.7102 85.2699 43.4318L84.2358 43.1534C83.4801 42.9545 82.267 42.5568 82.267 41.4631C82.267 40.4886 83.1619 39.7727 84.5142 39.7727C85.7472 39.7727 86.6818 40.3594 86.8011 41.3636ZM95.0641 45.8778C95.0641 47.3097 93.9703 47.9659 93.0953 47.9659C92.1209 47.9659 91.4249 47.25 91.4249 46.1364V41.3636H90.2516V46.2159C90.2516 48.1648 91.2857 49.0994 92.7175 49.0994C93.8709 49.0994 94.6266 48.483 94.9846 47.7074H95.0641V49H96.2374V41.3636H95.0641V45.8778ZM98.7955 49H99.929V47.8267H100.068C100.327 48.2443 100.824 49.1591 102.295 49.1591C104.205 49.1591 105.537 47.6278 105.537 45.2017C105.537 42.7955 104.205 41.2642 102.276 41.2642C100.784 41.2642 100.327 42.179 100.068 42.5767H99.9688V38.8182H98.7955V49ZM99.9489 45.1818C99.9489 43.4716 100.705 42.3182 102.136 42.3182C103.628 42.3182 104.364 43.571 104.364 45.1818C104.364 46.8125 103.608 48.1051 102.136 48.1051C100.724 48.1051 99.9489 46.9119 99.9489 45.1818ZM110.684 49.1591C112.374 49.1591 113.488 48.125 113.687 46.7727H112.513C112.295 47.608 111.599 48.1051 110.684 48.1051C109.292 48.1051 108.397 46.9517 108.397 45.1818C108.397 43.4517 109.312 42.3182 110.684 42.3182C111.718 42.3182 112.335 42.9545 112.513 43.6506H113.687C113.488 42.2188 112.275 41.2642 110.664 41.2642C108.596 41.2642 107.224 42.8949 107.224 45.2216C107.224 47.5085 108.536 49.1591 110.684 49.1591ZM117.899 49.179C119.232 49.179 119.928 48.4631 120.166 47.9659H120.226V49H121.399V43.9688C121.399 41.5426 119.55 41.2642 118.575 41.2642C117.422 41.2642 116.109 41.6619 115.513 43.054L116.626 43.4517C116.885 42.8949 117.496 42.2983 118.615 42.2983C119.694 42.2983 120.226 42.87 120.226 43.8494V43.8892C120.226 44.456 119.649 44.4062 118.257 44.5852C116.84 44.7692 115.294 45.0824 115.294 46.8324C115.294 48.3239 116.447 49.179 117.899 49.179ZM118.078 48.125C117.143 48.125 116.467 47.7074 116.467 46.892C116.467 45.9972 117.283 45.7188 118.197 45.5994C118.695 45.5398 120.027 45.4006 120.226 45.1619V46.2358C120.226 47.1903 119.47 48.125 118.078 48.125ZM123.791 51.8636H124.964V47.8267H125.063C125.322 48.2443 125.819 49.1591 127.291 49.1591C129.2 49.1591 130.532 47.6278 130.532 45.2017C130.532 42.7955 129.2 41.2642 127.271 41.2642C125.779 41.2642 125.322 42.179 125.063 42.5767H124.924V41.3636H123.791V51.8636ZM124.944 45.1818C124.944 43.4716 125.7 42.3182 127.132 42.3182C128.623 42.3182 129.359 43.571 129.359 45.1818C129.359 46.8125 128.603 48.1051 127.132 48.1051C125.72 48.1051 124.944 46.9119 124.944 45.1818ZM135.893 41.3636H134.262V39.5341H133.089V41.3636H131.936V42.358H133.089V47.1307C133.089 48.4631 134.163 49.0994 135.157 49.0994C135.595 49.0994 135.873 49.0199 136.032 48.9602L135.794 47.9062C135.694 47.9261 135.535 47.9659 135.276 47.9659C134.759 47.9659 134.262 47.8068 134.262 46.8125V42.358H135.893V41.3636ZM137.908 49H139.081V41.3636H137.908V49ZM138.504 40.0909C138.962 40.0909 139.34 39.733 139.34 39.2955C139.34 38.858 138.962 38.5 138.504 38.5C138.047 38.5 137.669 38.858 137.669 39.2955C137.669 39.733 138.047 40.0909 138.504 40.0909ZM144.582 49.1591C146.651 49.1591 148.043 47.5881 148.043 45.2216C148.043 42.8352 146.651 41.2642 144.582 41.2642C142.514 41.2642 141.122 42.8352 141.122 45.2216C141.122 47.5881 142.514 49.1591 144.582 49.1591ZM144.582 48.1051C143.011 48.1051 142.295 46.7528 142.295 45.2216C142.295 43.6903 143.011 42.3182 144.582 42.3182C146.153 42.3182 146.869 43.6903 146.869 45.2216C146.869 46.7528 146.153 48.1051 144.582 48.1051ZM151.257 44.4062C151.257 43.0739 152.082 42.3182 153.206 42.3182C154.295 42.3182 154.956 43.0291 154.956 44.2273V49H156.129V44.1477C156.129 42.1989 155.09 41.2642 153.544 41.2642C152.39 41.2642 151.675 41.7812 151.317 42.5568H151.217V41.3636H150.084V49H151.257V44.4062Z" fill="#858585"/>
<path d="M7.14205 49.4432C9.32386 49.4432 11.2159 47.6193 11.233 45.3523C11.2159 43.1193 9.32386 41.2955 7.14205 41.2955C4.89205 41.2955 3.03409 43.1193 3.05114 45.3523C3.03409 47.6193 4.89205 49.4432 7.14205 49.4432ZM13.3608 20.1761H24.0483V49H31.3438V20.1761H42.0312V14.0909H13.3608V20.1761ZM52.8778 33.8636C52.8949 30.4886 54.9574 28.5114 57.9233 28.5114C60.8722 28.5114 62.6108 30.4034 62.5938 33.625V49H69.8551V32.3295C69.8722 26.1932 66.2585 22.4773 60.804 22.4773C56.8324 22.4773 54.1733 24.3523 52.9801 27.4375H52.6733V14.0909H45.6165V49H52.8778V33.8636Z" fill="#6C5CE7"/>
</svg>
